# xmcd
#
# Track frame offsets:
#	150
#	22672
#	39502
#	61965
#	83537
#	99720
#	115172
#	132265
#	148850
#	168322
#	190340
#	202080
#	219867
#	246955
#	266172
#	291810
#	315825
#	336100
#
# Disc length: 4676
#
# Revision: 3
# Processed by: cddbd v1.5.1PL0 Copyright (c) Steve Scherf et al.
# Submitted via: CDex 1.50
# Normalized: r2:DSETVAR1,TDELIM( - )
#
DISCID=01124212
DTITLE=Various Artist - Jazz Cafe [Disc One]
DYEAR=2003
DGENRE=Jazz
TTITLE0=St Germain - Deep in It
TTITLE1=Nina Simone - Feelin' Good (Joe Claussel Remix)
TTITLE2=Terry Callier - Love Theme from Spartacus (Zero 7 Mix)
TTITLE3=Jamie Cullum - High and Dry
TTITLE4=Thievery Corporation - Barrio alto
TTITLE5=Röyksopp - So Easy
TTITLE6=Gotan Project - Santa Maria (del buen ayre)
TTITLE7=Tom and Joyce - Queixume (Original)
TTITLE8=Pete Rodriguez - I Like It (I Like It like That) (From Odeon Cinemas)
TTITLE9=Sundown Park - Watermelon Man
TTITLE10=Quincy Jones and His Orchestra featuring Roland Kirk - Comin' Home Baby
TTITLE11=The Average White Band - Pick Up the Pieces
TTITLE12=MAW featuring India - Backfired
TTITLE13=Shaun Escoffery - Days Like This (DJ Spinna and Ticklah Mix)
TTITLE14=Mitchell and Dewsbury featuring Fertile Ground - Spaces and Places
TTITLE15=Gerard Presencer - Chasing Reality (Micatone Remix)
TTITLE16=Zuco 103 - Outro Lado
TTITLE17=Astrud Gilberto - The Girl from Ipanema
EXTD=YEAR: 2003
EXTT0=
EXTT1=
EXTT2=
EXTT3=
EXTT4=
EXTT5=
EXTT6=
EXTT7=
EXTT8=
EXTT9=
EXTT10=
EXTT11=
EXTT12=
EXTT13=
EXTT14=
EXTT15=
EXTT16=
EXTT17=
PLAYORDER=
